E5 1/8 100
E5 1/8 100
rest 1/8 100
E5 1/8 100
rest 1/8 100
C5 1/8 100
E5 1/4 100
G5 1/4 100
rest 1/4 100
G4 1/4 100
rest 1/4 100
# begin first theme
C5 1/4 100
rest 1/8 100
G4 1/4 100
rest 1/8 100
E4 1/4 100
rest 1/8 100
A4 1/4 100
B4 1/4 100
A#4 1/8 100
A4 1/4 100
G4 1/6 100
E5 1/6 100
G5 1/6 100
A5 1/4 100
F5 1/8 100
G5 1/8 100
rest 1/8 100
E5 1/4 100
C5 1/8 100
D5 1/8 100
B4 1/4 100
rest 1/8 100
# end first theme
# repeat first theme
C5 1/4 100
rest 1/8 100
G4 1/4 100
rest 1/8 100
E4 1/4 100
rest 1/8 100
A4 1/4 100
B4 1/4 100
A#4 1/8 100
A4 1/4 100
G4 1/6 100
E5 1/6 100
G5 1/6 100
A5 1/4 100
F5 1/8 100
G5 1/8 100
rest 1/8 100
E5 1/4 100
C5 1/8 100
D5 1/8 100
B4 1/4 100
rest 1/8 100
# end repeat first theme
# begin second theme
C3 1/4 100
G5 1/8 100
F#5 1/8 100
F5 1/8 100
D#5 1/4 100
E5 1/8 100
rest 1/8 100
G#4 1/8 100
A4 1/8 100
C5 1/8 100
rest 1/8 100
A4 1/8 100
C5 1/8 100
D5 1/8 100
rest 1/4 100
C3 1/4 100
G5 1/8 100
F#5 1/8 100
F5 1/8 100
D#5 1/4 100
E5 1/8 100
rest 1/8 100
C6 1/4 100
C6 1/8 100
C6 1/4 100
rest 1/4 100
C3 1/4 100
G5 1/8 100
F#5 1/8 100
F5 1/8 100
D#5 1/4 100
E5 1/8 100
rest 1/8 100
G#4 1/8 100
A4 1/8 100
C5 1/8 100
rest 1/8 100
A4 1/8 100
C5 1/8 100
D5 1/8 100
rest 1/4 100
D#5 1/4 100
rest 1/8 100
D5 1/4 100
rest 1/8 100
C5 1/4 100
rest 1/8 100
G3 1/8 100
G3 1/4 100
C3 1/4 100
# end second theme
# repeat second theme
C3 1/4 100
G5 1/8 100
F#5 1/8 100
F5 1/8 100
D#5 1/4 100
E5 1/8 100
rest 1/8 100
G#4 1/8 100
A4 1/8 100
C5 1/8 100
rest 1/8 100
A4 1/8 100
C5 1/8 100
D5 1/8 100
rest 1/4 100
C3 1/4 100
G5 1/8 100
F#5 1/8 100
F5 1/8 100
D#5 1/4 100
E5 1/8 100
rest 1/8 100
C6 1/4 100
C6 1/8 100
C6 1/4 100
rest 1/4 100
C3 1/4 100
G5 1/8 100
F#5 1/8 100
F5 1/8 100
D#5 1/4 100
E5 1/8 100
rest 1/8 100
G#4 1/8 100
A4 1/8 100
C5 1/8 100
rest 1/8 100
A4 1/8 100
C5 1/8 100
D5 1/8 100
rest 1/4 100
D#5 1/4 100
rest 1/8 100
D5 1/4 100
rest 1/8 100
C5 1/4 100
rest 1/8 100
G3 1/8 100
G3 1/4 100
C3 1/4 100
# end repeat second theme